<?xml version="1.0" encoding="UTF-8" standalone="no"?><!DOCTYPE svg PUBLIC "-//W3C//DTD SVG 1.1//EN" "http://www.w3.org/Graphics/SVG/1.1/DTD/svg11.dtd"><svg width="100%" height="100%" viewBox="0 0 400 400" version="1.1" xmlns="http://www.w3.org/2000/svg" xmlns:xlink="http://www.w3.org/1999/xlink" xml:space="preserve" xmlns:serif="http://www.serif.com/" style="fill-rule:evenodd;clip-rule:evenodd;stroke-linecap:round;stroke-linejoin:round;stroke-miterlimit:1.5;"><ellipse cx="199.81" cy="200.4" rx="199.962" ry="199.952" style="fill:#69c;"/><g id="Dark-Dog" serif:id="Dark Dog"><g><g><path d="M275.207,181.909l0,106.504" style="fill:none;stroke:#30323d;stroke-width:20.83px;"/><path d="M247.139,81.587l127.654,116.276l-130.172,120.55" style="fill:none;stroke:#30323d;stroke-width:20.83px;"/><path d="M353.978,208.711c1.925,-2.516 3.482,-6.478 3.469,-10.771c-0.013,-4.292 -1.594,-8.244 -3.534,-10.749c6.441,-0.02 11.685,4.786 11.703,10.725c0.018,5.938 -5.196,10.776 -11.638,10.795Z" style="stroke:#30323d;stroke-width:8.33px;"/><path d="M282.363,251.812c1.488,2.332 4.254,4.74 7.737,5.893c3.483,1.154 7.139,0.872 9.725,-0.109c-1.828,5.521 -7.225,8.708 -12.044,7.112c-4.819,-1.596 -7.247,-7.374 -5.418,-12.896Z" style="stroke:#30323d;stroke-width:8.33px;"/></g><g><path d="M124.793,181.909l-0,106.504" style="fill:none;stroke:#30323d;stroke-width:20.83px;"/><path d="M152.861,81.587l-127.654,116.276l130.172,120.55" style="fill:none;stroke:#30323d;stroke-width:20.83px;"/><path d="M46.022,208.711c-1.925,-2.516 -3.482,-6.478 -3.469,-10.771c0.013,-4.292 1.594,-8.244 3.534,-10.749c-6.441,-0.02 -11.685,4.786 -11.703,10.725c-0.018,5.938 5.196,10.776 11.638,10.795Z" style="stroke:#30323d;stroke-width:8.33px;"/><path d="M117.637,251.812c-1.488,2.332 -4.254,4.74 -7.737,5.893c-3.483,1.154 -7.139,0.872 -9.725,-0.109c1.828,5.521 7.225,8.708 12.044,7.112c4.819,-1.596 7.247,-7.374 5.418,-12.896Z" style="stroke:#30323d;stroke-width:8.33px;"/></g></g><g><path d="M181.569,206.744c0.65,0.184 1.348,0.098 1.934,-0.238c0.587,-0.337 1.013,-0.895 1.182,-1.549c0.481,-1.908 0.704,-4.759 -0.971,-7.886c-3.3,-6.161 -8.832,-8.353 -16.587,-8.223c-9.381,0.158 -17.162,7.984 -17.162,17.06c-0,0.001 -0,0.003 -0,0.004c-0,1.198 0.616,2.312 1.631,2.95c1.015,0.637 2.286,0.708 3.366,0.187c3.991,-2.194 8.693,-4.847 12.677,-5.394c5.432,-0.745 9.434,1.678 13.93,3.089Z" style="fill:#30323d;"/><path d="M218.431,206.744c-0.65,0.184 -1.348,0.098 -1.934,-0.238c-0.587,-0.337 -1.013,-0.895 -1.182,-1.549c-0.481,-1.908 -0.704,-4.759 0.971,-7.886c3.3,-6.161 8.832,-8.353 16.587,-8.223c9.381,0.158 17.162,7.984 17.162,17.06c0,0.001 0,0.003 0,0.004c0,1.198 -0.616,2.312 -1.631,2.95c-1.015,0.637 -2.286,0.708 -3.366,0.187c-3.991,-2.194 -8.693,-4.847 -12.677,-5.394c-5.432,-0.745 -9.434,1.678 -13.93,3.089Z" style="fill:#30323d;"/></g><g><path d="M200.225,304.247c-7.876,-4.012 -13.946,-8.281 -18.245,-12.91c0.001,0.001 35.785,-0.006 35.785,-0.006c-4.48,4.831 -10.296,9.138 -17.54,12.916Z" style="fill:#30323d;stroke:#30323d;stroke-width:15px;"/><path d="M200.242,323.578l-0,-23.096" style="fill:none;stroke:#30323d;stroke-width:15px;"/></g></g></svg>