<?xml version="1.0" encoding="UTF-8" standalone="no"?><!DOCTYPE svg PUBLIC "-//W3C//DTD SVG 1.1//EN" "http://www.w3.org/Graphics/SVG/1.1/DTD/svg11.dtd"><svg width="100%" height="100%" viewBox="0 0 400 400" version="1.1" xmlns="http://www.w3.org/2000/svg" xmlns:xlink="http://www.w3.org/1999/xlink" xml:space="preserve" xmlns:serif="http://www.serif.com/" style="fill-rule:evenodd;clip-rule:evenodd;stroke-linejoin:round;stroke-miterlimit:2;"><ellipse cx="200" cy="200" rx="186.481" ry="185.108" style="fill:#69c;"/><path d="M200,2.392c109.846,-0 198.981,88.571 198.981,197.608c-0,109.037 -89.135,197.608 -198.981,197.608c-109.846,0 -198.981,-88.571 -198.981,-197.608c0,-109.037 89.135,-197.608 198.981,-197.608Zm0,12.5c-102.922,-0 -186.481,82.944 -186.481,185.108c0,102.164 83.559,185.108 186.481,185.108c102.922,0 186.481,-82.944 186.481,-185.108c-0,-102.164 -83.559,-185.108 -186.481,-185.108Z" style="fill:#30323d;"/><path d="M287.971,327.307l-178.946,-0c-3.268,-0 -5.894,-0.882 -7.88,-2.645c-1.986,-1.763 -2.978,-4.177 -2.978,-7.243c-0,-2.746 0.615,-4.921 1.845,-6.526c1.23,-1.605 3.075,-3.334 5.536,-5.186c2.46,-1.853 4.305,-3.618 5.536,-5.295c1.23,-1.677 1.845,-3.922 1.845,-6.734l-0,-187.356c-0,-2.956 -0.615,-5.237 -1.845,-6.842c-1.231,-1.605 -3.076,-3.334 -5.536,-5.187c-2.461,-1.852 -4.306,-3.617 -5.536,-5.294c-1.23,-1.677 -1.845,-3.817 -1.845,-6.418c-0,-3.066 0.992,-5.48 2.978,-7.243c1.986,-1.763 4.612,-2.645 7.88,-2.645l173.41,0c4.356,0 7.755,1.204 10.198,3.61c2.443,2.407 3.665,5.747 3.665,10.022l-0,46.476c-0,3.171 -0.906,5.764 -2.716,7.779c-1.811,2.014 -4.156,3.021 -7.036,3.021c-3.229,0 -5.835,-1.408 -7.819,-4.224c-1.984,-2.816 -4.169,-7.198 -6.556,-13.146c-0.108,-0.499 -0.285,-0.928 -0.531,-1.287c-3.648,-9.653 -7.797,-17.275 -12.447,-22.867c-4.65,-5.591 -11.607,-8.386 -20.872,-8.386l-69.942,-0l0,90.753l48.283,-0c5.613,-0 10.024,-1.38 13.234,-4.14c3.21,-2.759 6.186,-6.561 8.927,-11.405c-0,-0.105 0.061,-0.194 0.184,-0.266c0.123,-0.073 0.185,-0.161 0.185,-0.267c1.93,-3.564 3.852,-6.238 5.766,-8.021c1.915,-1.782 4.329,-2.673 7.243,-2.673c3.022,-0 5.402,0.98 7.142,2.94c1.74,1.96 2.609,4.65 2.609,8.07l0,52.152c0,3.42 -0.869,6.11 -2.609,8.07c-1.74,1.96 -4.12,2.94 -7.142,2.94c-2.914,0 -5.328,-0.891 -7.243,-2.673c-1.914,-1.783 -3.836,-4.457 -5.766,-8.021c-0,-0.106 -0.062,-0.195 -0.185,-0.267c-0.123,-0.072 -0.184,-0.161 -0.184,-0.266c-2.741,-4.844 -5.717,-8.646 -8.927,-11.405c-3.21,-2.76 -7.621,-4.14 -13.234,-4.14l-48.283,0l0,86.915c0,4.345 1.308,7.818 3.925,10.42c2.616,2.601 6.065,3.902 10.348,3.902l58.201,0c9.161,0 16.294,-2.911 21.399,-8.735c5.105,-5.823 9.676,-13.758 13.713,-23.805l0.161,-0.533c0.246,-0.499 0.421,-0.926 0.525,-1.281c2.633,-6.307 5.056,-10.983 7.269,-14.029c2.212,-3.046 4.933,-4.57 8.162,-4.57c2.88,0 5.225,1.043 7.035,3.128c1.811,2.084 2.716,4.712 2.716,7.883l0,49.308c0,4.169 -1.221,7.484 -3.664,9.943c-2.443,2.459 -5.843,3.689 -10.198,3.689Z" style="fill:#e8eddf;stroke:#30323d;stroke-width:12.5px;"/></svg>