<?xml version="1.0" encoding="UTF-8" standalone="no"?><!DOCTYPE svg PUBLIC "-//W3C//DTD SVG 1.1//EN" "http://www.w3.org/Graphics/SVG/1.1/DTD/svg11.dtd"><svg width="100%" height="100%" viewBox="0 0 4370 4370" version="1.1" xmlns="http://www.w3.org/2000/svg" xmlns:xlink="http://www.w3.org/1999/xlink" xml:space="preserve" xmlns:serif="http://www.serif.com/" style="fill-rule:evenodd;clip-rule:evenodd;stroke-linecap:round;stroke-linejoin:round;stroke-miterlimit:10;"><circle cx="2184.98" cy="2184.98" r="2184.98" style="fill:#cadcfc;"/><g id="big"><path d="M1172.41,2064.54c0,-0 -332.609,360.451 -332.609,819.281" style="fill:none;fill-rule:nonzero;stroke:#00246b;stroke-width:171.68px;"/><path d="M1172.41,1165.02c0,-0 -969.985,448.977 -969.985,930.648c0,242.515 429.272,475.177 429.272,475.177" style="fill:none;fill-rule:nonzero;stroke:#00246b;stroke-width:171.68px;"/><circle cx="1703.27" cy="2168.82" r="113.607" style="fill:#00246b;stroke:#00246b;stroke-width:4.17px;stroke-linecap:butt;stroke-miterlimit:2;"/><path d="M3197.55,2064.54c0,-0 332.609,360.451 332.609,819.281" style="fill:none;fill-rule:nonzero;stroke:#00246b;stroke-width:171.68px;"/><path d="M3197.55,1165.02c0,-0 969.985,448.977 969.985,930.648c0,242.515 -429.271,475.177 -429.271,475.177" style="fill:none;fill-rule:nonzero;stroke:#00246b;stroke-width:171.68px;"/><circle cx="2666.69" cy="2168.82" r="113.607" style="fill:#00246b;stroke:#00246b;stroke-width:4.17px;stroke-linecap:butt;stroke-miterlimit:2;"/><path d="M1611.54,2570.85c-0,-0 42.621,209.747 275.283,209.747c232.662,-0 298.198,-188.399 298.198,-188.399" style="fill:none;fill-rule:nonzero;stroke:#00246b;stroke-width:171.68px;"/><path d="M2758.42,2570.85c-0,-0 -42.622,209.747 -275.284,209.747c-232.662,-0 -298.198,-188.399 -298.198,-188.399" style="fill:none;fill-rule:nonzero;stroke:#00246b;stroke-width:171.68px;"/><path d="M2506.13,2780.52l0,103.231c0,177.352 -143.762,321.189 -321.188,321.189c-177.426,-0 -321.189,-143.763 -321.189,-321.189l0,-89.049" style="fill:none;fill-rule:nonzero;stroke:#00246b;stroke-width:171.68px;"/><ellipse cx="2184.94" cy="2464.48" rx="225.048" ry="174.814" style="fill:#00246b;stroke:#00246b;stroke-width:4.17px;stroke-linecap:butt;stroke-miterlimit:2;"/></g></svg>