<?xml version="1.0" encoding="UTF-8" standalone="no"?><!DOCTYPE svg PUBLIC "-//W3C//DTD SVG 1.1//EN" "http://www.w3.org/Graphics/SVG/1.1/DTD/svg11.dtd"><svg width="100%" height="100%" viewBox="0 0 400 400" version="1.1" xmlns="http://www.w3.org/2000/svg" xmlns:xlink="http://www.w3.org/1999/xlink" xml:space="preserve" xmlns:serif="http://www.serif.com/" style="fill-rule:evenodd;clip-rule:evenodd;stroke-linecap:round;stroke-linejoin:round;stroke-miterlimit:1.5;"><g id="Icon"><path d="M190.466,39.226c5.698,-5.081 14.306,-5.064 19.982,0.041c32.388,29.123 134.417,120.869 167.255,150.398c2.629,2.364 4.134,5.731 4.142,9.267c0.008,3.535 -1.482,6.909 -4.1,9.285c-32.806,29.765 -134.981,122.473 -167.509,151.987c-5.707,5.178 -14.41,5.189 -20.13,0.026c-32.652,-29.474 -135.333,-122.16 -168.364,-151.975c-2.636,-2.379 -4.135,-5.767 -4.125,-9.318c0.011,-3.551 1.531,-6.93 4.181,-9.294c33.153,-29.565 136.07,-121.347 168.668,-150.417Z" style="fill:#ffad05;"/><g id="Dark-Dog-Bigger" serif:id="Dark Dog Bigger"><g><g><path d="M280.713,181.732l0,114.732" style="fill:none;stroke:#30323d;stroke-width:20.83px;"/><path d="M250.477,73.659l137.516,125.259l-140.229,129.864" style="fill:none;stroke:#30323d;stroke-width:20.83px;"/><path d="M365.57,210.605c2.074,-2.711 3.751,-6.979 3.737,-11.603c-0.014,-4.624 -1.717,-8.882 -3.807,-11.58c6.939,-0.022 12.588,5.155 12.608,11.553c0.019,6.397 -5.599,11.609 -12.538,11.63Z" style="fill:#30323d;stroke:#30323d;stroke-width:8.33px;"/><path d="M287.77,257.976c1.604,2.511 4.583,5.105 8.336,6.348c3.752,1.243 7.691,0.939 10.476,-0.118c-1.97,5.948 -7.783,9.381 -12.975,7.662c-5.191,-1.72 -7.806,-7.944 -5.837,-13.892Z" style="stroke:#30323d;stroke-width:8.33px;"/></g><g><path d="M118.678,181.732l0,114.732" style="fill:none;stroke:#30323d;stroke-width:20.83px;"/><path d="M148.915,73.659l-137.517,125.259l140.229,129.864" style="fill:none;stroke:#30323d;stroke-width:20.83px;"/><path d="M33.821,210.605c-2.073,-2.711 -3.75,-6.979 -3.736,-11.603c0.014,-4.624 1.717,-8.882 3.807,-11.58c-6.939,-0.022 -12.589,5.155 -12.608,11.553c-0.019,6.397 5.598,11.609 12.537,11.63Z" style="fill:#30323d;stroke:#30323d;stroke-width:8.33px;"/><path d="M111.266,257.74c-1.604,2.511 -4.583,5.105 -8.335,6.348c-3.752,1.242 -7.691,0.939 -10.477,-0.118c1.97,5.948 7.784,9.381 12.975,7.661c5.191,-1.719 7.807,-7.943 5.837,-13.891Z" style="stroke:#30323d;stroke-width:8.33px;"/></g></g><g><path d="M180.04,208.547c0.642,0.179 1.33,0.095 1.91,-0.233c0.581,-0.328 1.007,-0.874 1.185,-1.516c0.559,-2.051 0.892,-5.231 -0.983,-8.733c-3.556,-6.637 -9.514,-8.999 -17.869,-8.858c-10.106,0.17 -18.488,8.601 -18.488,18.378c-0,0.05 -0,0.101 0,0.151c0.009,1.262 0.663,2.431 1.734,3.098c1.071,0.666 2.409,0.738 3.545,0.19c4.322,-2.373 9.435,-5.272 13.761,-5.866c5.931,-0.814 10.28,1.879 15.205,3.389Z" style="fill:#30323d;"/><path d="M219.352,208.547c-0.643,0.179 -1.33,0.095 -1.91,-0.233c-0.581,-0.328 -1.007,-0.874 -1.186,-1.516c-0.558,-2.051 -0.892,-5.231 0.984,-8.733c3.556,-6.637 9.514,-8.999 17.869,-8.858c10.105,0.17 18.488,8.601 18.488,18.378c0,0.05 -0,0.101 -0.001,0.151c-0.008,1.262 -0.663,2.431 -1.733,3.098c-1.071,0.666 -2.409,0.738 -3.545,0.19c-4.322,-2.373 -9.435,-5.272 -13.761,-5.866c-5.932,-0.814 -10.28,1.879 -15.205,3.389Z" style="fill:#30323d;"/></g><g><path d="M199.941,314.163c-9.218,-4.67 -16.176,-9.669 -20.933,-15.119c0,0.001 41.112,-0.007 41.112,-0.007c-5.03,5.697 -11.712,10.742 -20.179,15.126Z" style="fill:#30323d;stroke:#30323d;stroke-width:15px;"/><path d="M199.956,334.346l0,-24.88" style="fill:none;stroke:#30323d;stroke-width:15px;"/></g></g></g></svg>